  0
SECTION
  2
HEADER
  9
$ACADVER
  1
AC1014
  9
$HANDSEED
  5
FFFF
  9
$MEASUREMENT
 70
     1
  0
ENDSEC
  0
SECTION
  2
TABLES
  0
TABLE
  2
VPORT
  5
8
330
0
100
AcDbSymbolTable
 70
     4
  0
VPORT
  5
2E
330
8
100
AcDbSymbolTableRecord
100
AcDbViewportTableRecord
  2
*ACTIVE
 70
     0
 10
0.0
 20
0.0
 11
1.0
 21
1.0
 12
210.0
 22
148.5
 13
0.0
 23
0.0
 14
10.0
 24
10.0
 15
10.0
 25
10.0
 16
0.0
 26
0.0
 36
1.0
 17
0.0
 27
0.0
 37
0.0
 40
341.0
 41
1.24
 42
50.0
 43
0.0
 44
0.0
 50
0.0
 51
0.0
 71
     0
 72
   100
 73
     1
 74
     3
 75
     0
 76
     0
 77
     0
 78
     0
  0
ENDTAB
  0
TABLE
  2
LTYPE
  5
5
330
0
100
AcDbSymbolTable
 70
     1
  0
LTYPE
  5
14
330
5
100
AcDbSymbolTableRecord
100
AcDbLinetypeTableRecord
  2
BYBLOCK
 70
     0
  3

 72
    65
 73
     0
 40
0.0
  0
LTYPE
  5
15
330
5
100
AcDbSymbolTableRecord
100
AcDbLinetypeTableRecord
  2
BYLAYER
 70
     0
  3

 72
    65
 73
     0
 40
0.0
  0
LTYPE
  5
16
330
5
100
AcDbSymbolTableRecord
100
AcDbLinetypeTableRecord
  2
CONTINUOUS
 70
     0
  3
Solid line
 72
    65
 73
     0
 40
0.0
  0
ENDTAB
  0
TABLE
  2
LAYER
  5
2
100
AcDbSymbolTable
 70
2
  0
LAYER
  5
50
100
AcDbSymbolTableRecord
100
AcDbLayerTableRecord
  2
0
 70
0
  6
CONTINUOUS
  0
LAYER
  5
51
100
AcDbSymbolTableRecord
100
AcDbLayerTableRecord
  2
Layer_1
 70
0
  6
CONTINUOUS
  0
ENDTAB
  0
TABLE
  2
STYLE
  5
3
330
0
100
AcDbSymbolTable
 70
     1
  0
STYLE
  5
11
330
3
100
AcDbSymbolTableRecord
100
AcDbTextStyleTableRecord
  2
STANDARD
 70
     0
 40
0.0
 41
1.0
 50
0.0
 71
     0
 42
2.5
  3
txt
  4

  0
ENDTAB
  0
TABLE
  2
VIEW
  5
6
330
0
100
AcDbSymbolTable
 70
     0
  0
ENDTAB
  0
TABLE
  2
UCS
  5
7
330
0
100
AcDbSymbolTable
 70
     0
  0
ENDTAB
  0
TABLE
  2
APPID
  5
9
330
0
100
AcDbSymbolTable
 70
     2
  0
APPID
  5
12
330
9
100
AcDbSymbolTableRecord
100
AcDbRegAppTableRecord
  2
ACAD
 70
     0
  0
ENDTAB
  0
TABLE
  2
DIMSTYLE
  5
A
330
0
100
AcDbSymbolTable
 70
     1
  0
DIMSTYLE
105
27
330
A
100
AcDbSymbolTableRecord
100
AcDbDimStyleTableRecord
  2
ISO-25
 70
     0
  3

  4

  5

  6

  7

 40
1.0
 41
2.5
 42
0.625
 43
3.75
 44
1.25
 45
0.0
 46
0.0
 47
0.0
 48
0.0
140
2.5
141
2.5
142
0.0
143
0.03937007874016
144
1.0
145
0.0
146
1.0
147
0.625
 71
     0
 72
     0
 73
     0
 74
     0
 75
     0
 76
     0
 77
     1
 78
     8
170
     0
171
     3
172
     1
173
     0
174
     0
175
     0
176
     0
177
     0
178
     0
270
     2
271
     2
272
     2
273
     2
274
     3
340
11
275
     0
280
     0
281
     0
282
     0
283
     0
284
     8
285
     0
286
     0
287
     3
288
     0
  0
ENDTAB
  0
TABLE
  2
BLOCK_RECORD
  5
1
330
0
100
AcDbSymbolTable
 70
     1
  0
BLOCK_RECORD
  5
1F
330
1
100
AcDbSymbolTableRecord
100
AcDbBlockTableRecord
  2
*MODEL_SPACE
  0
BLOCK_RECORD
  5
1B
330
1
100
AcDbSymbolTableRecord
100
AcDbBlockTableRecord
  2
*PAPER_SPACE
  0
ENDTAB
  0
ENDSEC
  0
SECTION
  2
BLOCKS
  0
BLOCK
  5
20
330
1F
100
AcDbEntity
  8
0
100
AcDbBlockBegin
  2
*MODEL_SPACE
 70
     0
 10
0.0
 20
0.0
 30
0.0
  3
*MODEL_SPACE
  1

  0
ENDBLK
  5
21
330
1F
100
AcDbEntity
  8
0
100
AcDbBlockEnd
  0
BLOCK
  5
1C
330
1B
100
AcDbEntity
 67
     1
  8
0
100
AcDbBlockBegin
  2
*PAPER_SPACE
  1

  0
ENDBLK
  5
1D
330
1B
100
AcDbEntity
 67
     1
  8
0
100
AcDbBlockEnd
  0
ENDSEC
  0
SECTION
  2
ENTITIES
  0
SPLINE
  5
100
100
AcDbEntity
  8
Layer_1
 62
7
100
AcDbSpline
 70
8
 71
3
 72
8
 73
4
 74
0
 40
0
 40
0
 40
0
 40
0
 40
1
 40
1
 40
1
 40
1
 10
149.951686
 20
250.957233
 30
0.0
 10
151.038464
 20
250.957233
 30
0.0
 10
151.918422
 20
250.077273
 30
0.0
 10
151.918422
 20
248.990497
 30
0.0
  0
SPLINE
  5
101
100
AcDbEntity
  8
Layer_1
 62
7
100
AcDbSpline
 70
8
 71
3
 72
8
 73
4
 74
0
 40
0
 40
0
 40
0
 40
0
 40
1
 40
1
 40
1
 40
1
 10
151.918422
 20
248.990497
 30
0.0
 10
151.918422
 20
247.903721
 30
0.0
 10
151.038464
 20
247.023761
 30
0.0
 10
149.951686
 20
247.023761
 30
0.0
  0
SPLINE
  5
102
100
AcDbEntity
  8
Layer_1
 62
7
100
AcDbSpline
 70
8
 71
3
 72
8
 73
4
 74
0
 40
0
 40
0
 40
0
 40
0
 40
1
 40
1
 40
1
 40
1
 10
149.951686
 20
247.023761
 30
0.0
 10
148.864910
 20
247.023761
 30
0.0
 10
147.976130
 20
247.903721
 30
0.0
 10
147.976130
 20
248.990497
 30
0.0
  0
SPLINE
  5
103
100
AcDbEntity
  8
Layer_1
 62
7
100
AcDbSpline
 70
8
 71
3
 72
8
 73
4
 74
0
 40
0
 40
0
 40
0
 40
0
 40
1
 40
1
 40
1
 40
1
 10
147.976130
 20
248.990497
 30
0.0
 10
147.976130
 20
250.077273
 30
0.0
 10
148.864910
 20
250.957233
 30
0.0
 10
149.951686
 20
250.957233
 30
0.0
  0
LWPOLYLINE
  5
104
100
AcDbEntity
  8
Layer_1
 62
7
100
AcDbPolyline
 90
35
 70
0
 10
149.951686
 20
262.299039
 30
0.0
 10
149.889949
 20
262.202025
 30
0.0
 10
139.818144
 20
262.202025
 30
0.0
 10
107.547797
 20
209.117789
 30
0.0
 10
107.547797
 20
192.598969
 30
0.0
 10
107.530158
 20
192.598969
 30
0.0
 10
91.205366
 20
192.598969
 30
0.0
 10
37.988838
 20
160.240427
 30
0.0
 10
37.988838
 20
150.256816
 30
0.0
 10
37.891824
 20
150.195080
 30
0.0
 10
37.988838
 20
150.133344
 30
0.0
 10
37.988838
 20
140.070358
 30
0.0
 10
91.073074
 20
107.800011
 30
0.0
 10
107.530158
 20
107.800011
 30
0.0
 10
107.530158
 20
91.466400
 30
0.0
 10
139.897519
 20
38.249872
 30
0.0
 10
149.872311
 20
38.249872
 30
0.0
 10
149.934047
 20
38.152858
 30
0.0
 10
149.995783
 20
38.249872
 30
0.0
 10
160.058769
 20
38.249872
 30
0.0
 10
192.337936
 20
91.334108
 30
0.0
 10
192.337936
 20
107.800011
 30
0.0
 10
208.662727
 20
107.800011
 30
0.0
 10
261.879255
 20
140.158552
 30
0.0
 10
261.879255
 20
150.133344
 30
0.0
 10
261.976269
 20
150.195080
 30
0.0
 10
261.879255
 20
150.256816
 30
0.0
 10
261.879255
 20
160.328622
 30
0.0
 10
208.795019
 20
192.598969
 30
0.0
 10
192.346755
 20
192.598969
 30
0.0
 10
192.346755
 20
208.985497
 30
0.0
 10
159.988213
 20
262.202025
 30
0.0
 10
150.013422
 20
262.202025
 30
0.0
 10
149.951686
 20
262.299039
 30
0.0
 10
149.951686
 20
262.299039
 30
0.0
  0
SPLINE
  5
105
100
AcDbEntity
  8
Layer_1
 62
7
100
AcDbSpline
 70
8
 71
3
 72
8
 73
4
 74
0
 40
0
 40
0
 40
0
 40
0
 40
1
 40
1
 40
1
 40
1
 10
51.191547
 20
152.161816
 30
0.0
 10
52.278322
 20
152.161816
 30
0.0
 10
53.158283
 20
151.281859
 30
0.0
 10
53.158283
 20
150.195080
 30
0.0
  0
SPLINE
  5
106
100
AcDbEntity
  8
Layer_1
 62
7
100
AcDbSpline
 70
8
 71
3
 72
8
 73
4
 74
0
 40
0
 40
0
 40
0
 40
0
 40
1
 40
1
 40
1
 40
1
 10
53.158283
 20
150.195080
 30
0.0
 10
53.158283
 20
149.108304
 30
0.0
 10
52.278322
 20
148.228344
 30
0.0
 10
51.191547
 20
148.228344
 30
0.0
  0
SPLINE
  5
107
100
AcDbEntity
  8
Layer_1
 62
7
100
AcDbSpline
 70
8
 71
3
 72
8
 73
4
 74
0
 40
0
 40
0
 40
0
 40
0
 40
1
 40
1
 40
1
 40
1
 10
51.191547
 20
148.228344
 30
0.0
 10
50.104771
 20
148.228344
 30
0.0
 10
49.224811
 20
149.108304
 30
0.0
 10
49.224811
 20
150.195080
 30
0.0
  0
SPLINE
  5
108
100
AcDbEntity
  8
Layer_1
 62
7
100
AcDbSpline
 70
8
 71
3
 72
8
 73
4
 74
0
 40
0
 40
0
 40
0
 40
0
 40
1
 40
1
 40
1
 40
1
 10
49.224811
 20
150.195080
 30
0.0
 10
49.224811
 20
151.281859
 30
0.0
 10
50.104771
 20
152.161816
 30
0.0
 10
51.191547
 20
152.161816
 30
0.0
  0
LWPOLYLINE
  5
109
100
AcDbEntity
  8
Layer_1
 62
7
100
AcDbPolyline
 90
2
 70
0
 10
149.951686
 20
250.957233
 30
0.0
 10
149.951686
 20
250.957233
 30
0.0
  0
SPLINE
  5
10a
100
AcDbEntity
  8
Layer_1
 62
7
100
AcDbSpline
 70
8
 71
3
 72
8
 73
4
 74
0
 40
0
 40
0
 40
0
 40
0
 40
1
 40
1
 40
1
 40
1
 10
248.676547
 20
152.161816
 30
0.0
 10
249.763322
 20
152.161816
 30
0.0
 10
250.643283
 20
151.281856
 30
0.0
 10
250.643283
 20
150.195080
 30
0.0
  0
SPLINE
  5
10b
100
AcDbEntity
  8
Layer_1
 62
7
100
AcDbSpline
 70
8
 71
3
 72
8
 73
4
 74
0
 40
0
 40
0
 40
0
 40
0
 40
1
 40
1
 40
1
 40
1
 10
250.643283
 20
150.195080
 30
0.0
 10
250.643283
 20
149.108302
 30
0.0
 10
249.763322
 20
148.228344
 30
0.0
 10
248.676547
 20
148.228344
 30
0.0
  0
SPLINE
  5
10c
100
AcDbEntity
  8
Layer_1
 62
7
100
AcDbSpline
 70
8
 71
3
 72
8
 73
4
 74
0
 40
0
 40
0
 40
0
 40
0
 40
1
 40
1
 40
1
 40
1
 10
248.676547
 20
148.228344
 30
0.0
 10
247.589771
 20
148.228344
 30
0.0
 10
246.709811
 20
149.108302
 30
0.0
 10
246.709811
 20
150.195080
 30
0.0
  0
SPLINE
  5
10d
100
AcDbEntity
  8
Layer_1
 62
7
100
AcDbSpline
 70
8
 71
3
 72
8
 73
4
 74
0
 40
0
 40
0
 40
0
 40
0
 40
1
 40
1
 40
1
 40
1
 10
246.709811
 20
150.195080
 30
0.0
 10
246.709811
 20
151.281856
 30
0.0
 10
247.589771
 20
152.161816
 30
0.0
 10
248.676547
 20
152.161816
 30
0.0
  0
LWPOLYLINE
  5
10e
100
AcDbEntity
  8
Layer_1
 62
7
100
AcDbPolyline
 90
2
 70
0
 10
51.191547
 20
152.161816
 30
0.0
 10
51.191547
 20
152.161816
 30
0.0
  0
SPLINE
  5
10f
100
AcDbEntity
  8
Layer_1
 62
7
100
AcDbSpline
 70
8
 71
3
 72
8
 73
4
 74
0
 40
0
 40
0
 40
0
 40
0
 40
1
 40
1
 40
1
 40
1
 10
149.934047
 20
53.428136
 30
0.0
 10
151.020822
 20
53.428136
 30
0.0
 10
151.900783
 20
52.548175
 30
0.0
 10
151.900783
 20
51.461400
 30
0.0
  0
SPLINE
  5
110
100
AcDbEntity
  8
Layer_1
 62
7
100
AcDbSpline
 70
8
 71
3
 72
8
 73
4
 74
0
 40
0
 40
0
 40
0
 40
0
 40
1
 40
1
 40
1
 40
1
 10
151.900783
 20
51.461400
 30
0.0
 10
151.900783
 20
50.374624
 30
0.0
 10
151.020822
 20
49.494664
 30
0.0
 10
149.934047
 20
49.494664
 30
0.0
  0
SPLINE
  5
111
100
AcDbEntity
  8
Layer_1
 62
7
100
AcDbSpline
 70
8
 71
3
 72
8
 73
4
 74
0
 40
0
 40
0
 40
0
 40
0
 40
1
 40
1
 40
1
 40
1
 10
149.934047
 20
49.494664
 30
0.0
 10
148.847268
 20
49.494664
 30
0.0
 10
147.967311
 20
50.374624
 30
0.0
 10
147.967311
 20
51.461400
 30
0.0
  0
SPLINE
  5
112
100
AcDbEntity
  8
Layer_1
 62
7
100
AcDbSpline
 70
8
 71
3
 72
8
 73
4
 74
0
 40
0
 40
0
 40
0
 40
0
 40
1
 40
1
 40
1
 40
1
 10
147.967311
 20
51.461400
 30
0.0
 10
147.967311
 20
52.548175
 30
0.0
 10
148.847268
 20
53.428136
 30
0.0
 10
149.934047
 20
53.428136
 30
0.0
  0
LWPOLYLINE
  5
113
100
AcDbEntity
  8
Layer_1
 62
7
100
AcDbPolyline
 90
2
 70
0
 10
248.676547
 20
152.161816
 30
0.0
 10
248.676547
 20
152.161816
 30
0.0
  0
LWPOLYLINE
  5
114
100
AcDbEntity
  8
Layer_1
 62
7
100
AcDbPolyline
 90
2
 70
0
 10
149.934047
 20
53.428136
 30
0.0
 10
149.934047
 20
53.428136
 30
0.0
  0
LWPOLYLINE
  5
115
100
AcDbEntity
  8
Layer_1
 62
7
100
AcDbPolyline
 90
4
 70
0
 10
107.726364
 20
192.615278
 30
0.0
 10
150.164269
 20
262.168987
 30
0.0
 10
192.499990
 20
192.615278
 30
0.0
 10
107.726364
 20
192.615278
 30
0.0
  0
LWPOLYLINE
  5
116
100
AcDbEntity
  8
Layer_1
 62
7
100
AcDbPolyline
 90
4
 70
0
 10
192.641107
 20
192.386819
 30
0.0
 10
262.194816
 20
149.948914
 30
0.0
 10
192.641107
 20
107.613193
 30
0.0
 10
192.641107
 20
192.386819
 30
0.0
  0
LWPOLYLINE
  5
117
100
AcDbEntity
  8
Layer_1
 62
7
100
AcDbPolyline
 90
4
 70
0
 10
192.502567
 20
107.623634
 30
0.0
 10
150.064662
 20
38.069925
 30
0.0
 10
107.728941
 20
107.623634
 30
0.0
 10
192.502567
 20
107.623634
 30
0.0
  0
LWPOLYLINE
  5
118
100
AcDbEntity
  8
Layer_1
 62
7
100
AcDbPolyline
 90
4
 70
0
 10
107.444145
 20
107.839136
 30
0.0
 10
37.890436
 20
150.277041
 30
0.0
 10
107.444145
 20
192.612762
 30
0.0
 10
107.444145
 20
107.839136
 30
0.0
  0
ENDSEC
  0
SECTION
  2
OBJECTS
  0
DICTIONARY
  5
C
330
0
100
AcDbDictionary
  3
ACAD_GROUP
350
D
  3
ACAD_MLINESTYLE
350
17
  0
DICTIONARY
  5
D
330
C
100
AcDbDictionary
  0
DICTIONARY
  5
1A
330
C
100
AcDbDictionary
  0
DICTIONARY
  5
17
330
C
100
AcDbDictionary
  3
STANDARD
350
18
  0
DICTIONARY
  5
19
330
C
100
AcDbDictionary
  0
ENDSEC
  0
EOF
